<?xml version="1.0" encoding="UTF-8" standalone="no"?>
<!-- Created with Inkscape (http://www.inkscape.org/) -->

<svg
   width="1280.0004"
   height="321.45255"
   viewBox="0 0 338.66654 85.050984"
   version="1.1"
   id="svg1"
   sodipodi:docname="Carnec-sunroofs-logo.svg"
   inkscape:version="1.3.2 (091e20ef0f, 2023-11-25)"
   xmlns:inkscape="http://www.inkscape.org/namespaces/inkscape"
   xmlns:sodipodi="http://sodipodi.sourceforge.net/DTD/sodipodi-0.dtd"
   xmlns="http://www.w3.org/2000/svg"
   xmlns:svg="http://www.w3.org/2000/svg">
  <sodipodi:namedview
     id="namedview1"
     pagecolor="#ffffff"
     bordercolor="#000000"
     borderopacity="0.25"
     inkscape:showpageshadow="2"
     inkscape:pageopacity="0.0"
     inkscape:pagecheckerboard="0"
     inkscape:deskcolor="#d1d1d1"
     inkscape:document-units="px"
     inkscape:zoom="0.32693273"
     inkscape:cx="558.21881"
     inkscape:cy="282.93282"
     inkscape:window-width="1366"
     inkscape:window-height="715"
     inkscape:window-x="-8"
     inkscape:window-y="-8"
     inkscape:window-maximized="1"
     inkscape:current-layer="g1"
     showguides="false"
     showgrid="false" />
  <defs
     id="defs1" />
  <g
     inkscape:label="Layer 1"
     inkscape:groupmode="layer"
     id="layer1"
     transform="translate(-77.230227,-60.524212)">
    <g
       id="g4">
      <g
         id="g2"
         style="stroke-width:1.00012466;stroke-dasharray:none">
        <g
           id="g1"
           style="stroke-width:0.511881;stroke-dasharray:none"
           transform="matrix(1.9538236,0,0,1.9538236,-37.367731,-122.87965)">
          <g
             id="g5">
            <g
               id="g3">
              <path
                 d="m 73.83005,114.9275 q -1.4478,0 -2.64795,-0.4953 -1.20015,-0.4953 -2.07645,-1.4097 -0.8763,-0.93345 -1.3716,-2.19075 -0.47625,-1.27635 -0.47625,-2.7813 0,-1.4478 0.51435,-2.68605 0.51435,-1.23825 1.42875,-2.1717 0.9144,-0.93345 2.1336,-1.4478 1.2192,-0.51435 2.64795,-0.51435 0.97155,0 1.88595,0.28575 0.9144,0.28575 1.6764,0.8001 0.762,0.4953 1.27635,1.16205 L 77.24,105.212 q -0.4953,-0.51435 -1.0287,-0.85725 -0.51435,-0.36195 -1.08585,-0.5334 -0.55245,-0.1905 -1.143,-0.1905 -0.8763,0 -1.65735,0.32385 -0.762,0.32385 -1.3335,0.9144 -0.55245,0.59055 -0.8763,1.4097 -0.32385,0.8001 -0.32385,1.7907 0,1.00965 0.3048,1.8288 0.32385,0.81915 0.89535,1.4097 0.59055,0.59055 1.39065,0.9144 0.81915,0.3048 1.7907,0.3048 0.62865,0 1.2192,-0.17145 0.59055,-0.17145 1.08585,-0.47625 0.51435,-0.32385 0.93345,-0.74295 l 1.2192,1.96215 q -0.4572,0.51435 -1.2192,0.93345 -0.762,0.4191 -1.7145,0.66675 -0.93345,0.2286 -1.8669,0.2286 z m 10.7442,0 q -1.23825,0 -2.2479,-0.6858 -1.00965,-0.6858 -1.61925,-1.8669 -0.6096,-1.1811 -0.6096,-2.68605 0,-1.50495 0.6096,-2.68605 0.6096,-1.1811 1.65735,-1.84785 1.04775,-0.66675 2.3622,-0.66675 0.762,0 1.39065,0.2286 0.62865,0.20955 1.1049,0.6096 0.47625,0.40005 0.78105,0.9144 0.32385,0.51435 0.43815,1.1049 l -0.51435,-0.13335 v -2.5146 h 2.3622 V 114.737 H 87.908 v -2.4003 l 0.55245,-0.0952 q -0.13335,0.51435 -0.4953,1.00965 -0.3429,0.47625 -0.8763,0.85725 -0.51435,0.36195 -1.16205,0.59055 -0.62865,0.2286 -1.35255,0.2286 z m 0.6477,-2.07645 q 0.81915,0 1.4478,-0.40005 0.62865,-0.40005 0.97155,-1.1049 0.36195,-0.7239 0.36195,-1.65735 0,-0.9144 -0.36195,-1.61925 -0.3429,-0.70485 -0.97155,-1.1049 -0.62865,-0.40005 -1.4478,-0.40005 -0.81915,0 -1.4478,0.40005 -0.6096,0.40005 -0.9525,1.1049 -0.3429,0.70485 -0.3429,1.61925 0,0.93345 0.3429,1.65735 0.3429,0.70485 0.9525,1.1049 0.62865,0.40005 1.4478,0.40005 z m 7.791454,1.88595 v -10.03935 h 2.30505 l 0.0381,3.2004 -0.32385,-0.7239 q 0.20955,-0.762 0.7239,-1.3716 0.51435,-0.6096 1.1811,-0.9525 0.6858,-0.36195 1.428749,-0.36195 0.32385,0 0.6096,0.0571 0.3048,0.0572 0.4953,0.13335 l -0.62865,2.57175 q -0.20955,-0.1143 -0.51435,-0.1905 -0.3048,-0.0762 -0.6096,-0.0762 -0.476249,0 -0.914399,0.1905 -0.4191,0.17145 -0.74295,0.4953 -0.32385,0.32385 -0.51435,0.762 -0.17145,0.4191 -0.17145,0.9525 v 5.35305 z m 8.020036,0 v -10.03935 h 2.286 l 0.0381,2.0574 -0.43815,0.2286 q 0.1905,-0.6858 0.74295,-1.23825 0.55245,-0.5715 1.31445,-0.9144 0.762,-0.3429 1.5621,-0.3429 1.143,0 1.905,0.4572 0.78105,0.4572 1.16205,1.3716 0.40005,0.9144 0.40005,2.286 v 6.1341 h -2.34315 v -5.96265 q 0,-0.762 -0.20955,-1.2573 -0.20955,-0.51435 -0.6477,-0.74295 -0.43815,-0.24765 -1.0668,-0.2286 -0.51435,0 -0.9525,0.17145 -0.4191,0.1524 -0.74295,0.4572 -0.3048,0.28575 -0.4953,0.66675 -0.17145,0.381 -0.17145,0.8382 v 6.0579 h -1.16205 q -0.3429,0 -0.6477,0 -0.28575,0 -0.5334,0 z m 16.30679,0.1905 q -1.58115,0 -2.80035,-0.66675 -1.20015,-0.66675 -1.88595,-1.80975 -0.66675,-1.16205 -0.66675,-2.64795 0,-1.1811 0.381,-2.15265 0.381,-0.97155 1.04775,-1.6764 0.6858,-0.7239 1.61925,-1.1049 0.9525,-0.40005 2.07645,-0.40005 0.9906,0 1.84785,0.381 0.85725,0.381 1.4859,1.04775 0.62865,0.6477 0.9525,1.5621 0.3429,0.89535 0.32385,1.96215 l -0.019,0.81915 h -8.13435 l -0.43815,-1.6002 h 6.61035 l -0.3048,0.32385 v -0.4191 q -0.0572,-0.59055 -0.381,-1.0287 -0.32385,-0.4572 -0.8382,-0.70485 -0.4953,-0.2667 -1.1049,-0.2667 -0.93345,0 -1.58115,0.36195 -0.62865,0.36195 -0.9525,1.04775 -0.32385,0.66675 -0.32385,1.6764 0,0.97155 0.40005,1.69545 0.4191,0.7239 1.16205,1.12395 0.762,0.381 1.77165,0.381 0.70485,0 1.2954,-0.2286 0.59055,-0.2286 1.27635,-0.81915 l 1.16205,1.61925 q -0.51435,0.47625 -1.1811,0.81915 -0.6477,0.32385 -1.3716,0.51435 -0.7239,0.1905 -1.42875,0.1905 z m 10.76326,0 q -1.4097,0 -2.53365,-0.6858 -1.12395,-0.6858 -1.77165,-1.8669 -0.6477,-1.1811 -0.6477,-2.667 0,-1.4859 0.6477,-2.667 0.6477,-1.1811 1.77165,-1.8669 1.12395,-0.6858 2.53365,-0.6858 1.35255,0 2.45745,0.51435 1.1049,0.51435 1.7145,1.42875 l -1.2954,1.5621 q -0.28575,-0.40005 -0.7239,-0.7239 -0.43815,-0.32385 -0.93345,-0.51435 -0.4953,-0.1905 -0.9906,-0.1905 -0.8382,0 -1.50495,0.4191 -0.6477,0.40005 -1.0287,1.12395 -0.381,0.70485 -0.381,1.6002 0,0.89535 0.381,1.6002 0.40005,0.70485 1.0668,1.12395 0.66675,0.4191 1.4859,0.4191 0.4953,0 0.9525,-0.1524 0.47625,-0.17145 0.89535,-0.47625 0.4191,-0.3048 0.78105,-0.762 l 1.2954,1.58115 q -0.6477,0.8382 -1.7907,1.3716 -1.12395,0.51435 -2.38125,0.51435 z m 16.21155,0 q -1.16205,0 -2.1336,-0.28575 -0.97155,-0.3048 -1.7526,-0.89535 -0.78105,-0.59055 -1.39065,-1.42875 l 1.61925,-1.8288 q 0.93345,1.2954 1.8288,1.7907 0.89535,0.4953 2.0193,0.4953 0.6477,0 1.1811,-0.1905 0.5334,-0.20955 0.8382,-0.55245 0.3048,-0.36195 0.3048,-0.81915 0,-0.32385 -0.13335,-0.59055 -0.1143,-0.28575 -0.36195,-0.4953 -0.24765,-0.2286 -0.6096,-0.4191 -0.36195,-0.1905 -0.81915,-0.32385 -0.4572,-0.13335 -1.00965,-0.24765 -1.04775,-0.20955 -1.8288,-0.55245 -0.78105,-0.36195 -1.31445,-0.8763 -0.5334,-0.5334 -0.78105,-1.1811 -0.24765,-0.66675 -0.24765,-1.50495 0,-0.8382 0.36195,-1.54305 0.381,-0.70485 1.0287,-1.2192 0.6477,-0.51435 1.50495,-0.8001 0.85725,-0.28575 1.84785,-0.28575 1.12395,0 2.00025,0.2667 0.89535,0.2667 1.5621,0.8001 0.6858,0.51435 1.12395,1.2573 l -1.6383,1.61925 q -0.381,-0.59055 -0.85725,-0.97155 -0.47625,-0.40005 -1.0287,-0.59055 -0.55245,-0.20955 -1.16205,-0.20955 -0.6858,0 -1.20015,0.1905 -0.4953,0.1905 -0.78105,0.55245 -0.28575,0.3429 -0.28575,0.8382 0,0.381 0.17145,0.6858 0.17145,0.28575 0.47625,0.51435 0.32385,0.2286 0.81915,0.40005 0.4953,0.17145 1.12395,0.3048 1.04775,0.20955 1.88595,0.5715 0.8382,0.3429 1.42875,0.8382 0.59055,0.47625 0.89535,1.1049 0.3048,0.6096 0.3048,1.3716 0,1.31445 -0.62865,2.26695 -0.6096,0.93345 -1.73355,1.4478 -1.12395,0.4953 -2.6289,0.4953 z m 10.78232,0 q -1.08585,0 -1.88595,-0.47625 -0.8001,-0.4953 -1.2192,-1.39065 -0.4191,-0.9144 -0.4191,-2.1717 v -6.19125 h 2.34315 v 5.69595 q 0,0.8001 0.24765,1.3716 0.24765,0.55245 0.7239,0.85725 0.47625,0.3048 1.143,0.3048 0.4953,0 0.89535,-0.1524 0.4191,-0.17145 0.7239,-0.4572 0.3048,-0.3048 0.47625,-0.70485 0.17145,-0.4191 0.17145,-0.89535 v -6.0198 h 2.34315 V 114.737 h -2.286 l -0.0381,-2.0955 0.4191,-0.2286 q -0.2286,0.7239 -0.78105,1.2954 -0.5334,0.55245 -1.27635,0.89535 -0.74295,0.32385 -1.58115,0.32385 z m 8.28674,-0.1905 v -10.03935 h 2.286 l 0.0381,2.0574 -0.43815,0.2286 q 0.1905,-0.6858 0.74295,-1.23825 0.55245,-0.5715 1.31445,-0.9144 0.762,-0.3429 1.5621,-0.3429 1.143,0 1.905,0.4572 0.78105,0.4572 1.16205,1.3716 0.40005,0.9144 0.40005,2.286 v 6.1341 h -2.34315 v -5.96265 q 0,-0.762 -0.20955,-1.2573 -0.20955,-0.51435 -0.6477,-0.74295 -0.43815,-0.24765 -1.0668,-0.2286 -0.51435,0 -0.9525,0.17145 -0.4191,0.1524 -0.74295,0.4572 -0.3048,0.28575 -0.4953,0.66675 -0.17145,0.381 -0.17145,0.8382 v 6.0579 h -1.16205 q -0.3429,0 -0.6477,0 -0.28575,0 -0.5334,0 z m 11.60144,0 v -10.03935 h 2.30505 l 0.0381,3.2004 -0.32385,-0.7239 q 0.20955,-0.762 0.7239,-1.3716 0.51435,-0.6096 1.1811,-0.9525 0.6858,-0.36195 1.42875,-0.36195 0.32385,0 0.6096,0.0571 0.3048,0.0572 0.4953,0.13335 l -0.62865,2.57175 q -0.20955,-0.1143 -0.51435,-0.1905 -0.3048,-0.0762 -0.6096,-0.0762 -0.47625,0 -0.9144,0.1905 -0.4191,0.17145 -0.74295,0.4953 -0.32385,0.32385 -0.51435,0.762 -0.17145,0.4191 -0.17145,0.9525 v 5.35305 z m 12.19201,0.1905 q -1.50495,0 -2.68605,-0.66675 -1.1811,-0.6858 -1.8669,-1.8669 -0.6858,-1.1811 -0.6858,-2.68605 0,-1.50495 0.6858,-2.68605 0.6858,-1.1811 1.8669,-1.84785 1.1811,-0.6858 2.68605,-0.6858 1.4859,0 2.667,0.6858 1.1811,0.66675 1.84785,1.84785 0.6858,1.1811 0.6858,2.68605 0,1.50495 -0.6858,2.68605 -0.66675,1.1811 -1.84785,1.8669 -1.1811,0.66675 -2.667,0.66675 z m 0,-2.07645 q 0.81915,0 1.4478,-0.4191 0.6477,-0.4191 1.00965,-1.12395 0.381,-0.70485 0.36195,-1.6002 0.019,-0.9144 -0.36195,-1.61925 -0.36195,-0.70485 -1.00965,-1.1049 -0.62865,-0.4191 -1.4478,-0.4191 -0.81915,0 -1.4859,0.4191 -0.6477,0.40005 -1.00965,1.12395 -0.36195,0.70485 -0.36195,1.6002 0,0.89535 0.36195,1.6002 0.36195,0.70485 1.00965,1.12395 0.66675,0.4191 1.4859,0.4191 z m 11.8872,2.07645 q -1.50495,0 -2.68605,-0.66675 -1.1811,-0.6858 -1.8669,-1.8669 -0.6858,-1.1811 -0.6858,-2.68605 0,-1.50495 0.6858,-2.68605 0.6858,-1.1811 1.8669,-1.84785 1.1811,-0.6858 2.68605,-0.6858 1.4859,0 2.667,0.6858 1.1811,0.66675 1.84785,1.84785 0.6858,1.1811 0.6858,2.68605 0,1.50495 -0.6858,2.68605 -0.66675,1.1811 -1.84785,1.8669 -1.1811,0.66675 -2.667,0.66675 z m 0,-2.07645 q 0.81915,0 1.4478,-0.4191 0.6477,-0.4191 1.00965,-1.12395 0.381,-0.70485 0.36195,-1.6002 0.019,-0.9144 -0.36195,-1.61925 -0.36195,-0.70485 -1.00965,-1.1049 -0.62865,-0.4191 -1.4478,-0.4191 -0.81915,0 -1.4859,0.4191 -0.6477,0.40005 -1.00965,1.12395 -0.36195,0.70485 -0.36195,1.6002 0,0.89535 0.36195,1.6002 0.36195,0.70485 1.00965,1.12395 0.66675,0.4191 1.4859,0.4191 z m 7.82956,1.88595 v -10.9347 q 0,-0.9144 0.40005,-1.61925 0.40005,-0.7239 1.1049,-1.12395 0.70485,-0.4191 1.6383,-0.4191 0.6477,0 1.20015,0.2286 0.55245,0.20955 0.93345,0.59055 l -0.7239,1.77165 q -0.24765,-0.20955 -0.5334,-0.32385 -0.2667,-0.1143 -0.51435,-0.1143 -0.381,0 -0.6477,0.13335 -0.24765,0.1143 -0.381,0.36195 -0.1143,0.24765 -0.1143,0.59055 v 10.8585 h -1.1811 q -0.3429,0 -0.6477,0 -0.28575,0 -0.5334,0 z m -1.5621,-7.7724 v -2.0574 h 6.19125 v 2.0574 z m 11.48715,7.9629 q -1.3335,0 -2.4003,-0.43815 -1.04775,-0.4572 -1.7145,-1.2954 l 1.524,-1.31445 q 0.5715,0.6477 1.27635,0.93345 0.70485,0.28575 1.4859,0.28575 0.32385,0 0.5715,-0.0762 0.2667,-0.0762 0.4572,-0.2286 0.1905,-0.1524 0.28575,-0.3429 0.1143,-0.20955 0.1143,-0.4572 0,-0.4572 -0.3429,-0.7239 -0.1905,-0.13335 -0.6096,-0.28575 -0.40005,-0.1524 -1.04775,-0.3048 -1.0287,-0.2667 -1.7145,-0.6096 -0.6858,-0.36195 -1.0668,-0.8001 -0.32385,-0.36195 -0.4953,-0.81915 -0.1524,-0.4572 -0.1524,-0.9906 0,-0.66675 0.28575,-1.20015 0.3048,-0.55245 0.81915,-0.9525 0.51435,-0.40005 1.20015,-0.6096 0.6858,-0.20955 1.42875,-0.20955 0.762,0 1.46685,0.1905 0.7239,0.1905 1.3335,0.55245 0.62865,0.3429 1.0668,0.8382 l -1.2954,1.42875 q -0.36195,-0.3429 -0.8001,-0.6096 -0.4191,-0.2667 -0.85725,-0.4191 -0.43815,-0.17145 -0.81915,-0.17145 -0.36195,0 -0.6477,0.0762 -0.28575,0.0572 -0.47625,0.1905 -0.1905,0.13335 -0.3048,0.3429 -0.0953,0.1905 -0.0953,0.4572 0.0191,0.2286 0.1143,0.43815 0.1143,0.1905 0.3048,0.32385 0.20955,0.13335 0.62865,0.3048 0.4191,0.17145 1.08585,0.32385 0.93345,0.24765 1.5621,0.55245 0.62865,0.3048 0.9906,0.70485 0.36195,0.3429 0.51435,0.8001 0.1524,0.4572 0.1524,1.00965 0,0.89535 -0.51435,1.6002 -0.4953,0.70485 -1.3716,1.1049 -0.85725,0.40005 -1.9431,0.40005 z"
                 id="text1"
                 style="font-weight:500;font-size:19.05px;font-family:Lexend;-inkscape-font-specification:'Lexend, Medium';fill:#101bff;stroke-width:0.511881;stroke-dasharray:none;fill-opacity:1"
                 aria-label="Carnec Sunroofs" />
              <path
                 d="m 150.57729,126.18208 v -4.81542 h 3.15066 v 0.81175 h -2.27013 v 3.19193 h 2.29765 v 0.81174 z m 0.41275,-2.06375 v -0.79798 h 2.38707 v 0.79798 z m 6.08119,2.06375 -1.03188,-1.39647 -0.19261,-0.26141 -1.49278,-1.96744 h 1.04563 l 1.00436,1.36208 0.21325,0.28892 1.47902,1.97432 z m -2.72415,0 1.43774,-1.92616 0.48154,0.57785 -0.9218,1.34831 z m 2.27012,-1.69227 -0.4609,-0.57097 0.83238,-1.36208 h 0.99748 z m 2.08438,3.20569 v -5.13874 h 0.83238 l 0.0138,0.8255 -0.14446,-0.0619 q 0.0413,-0.21326 0.23389,-0.39899 0.19262,-0.19262 0.46779,-0.30957 0.28204,-0.11694 0.58472,-0.11694 0.48155,0 0.85302,0.24077 0.37836,0.24077 0.59161,0.6604 0.22013,0.41963 0.22013,0.96996 0,0.54346 -0.22013,0.96997 -0.21325,0.41962 -0.59161,0.66727 -0.37147,0.24078 -0.83926,0.24078 -0.31644,0 -0.61224,-0.12383 -0.28893,-0.12382 -0.4953,-0.32332 -0.1995,-0.1995 -0.24765,-0.41963 l 0.20637,-0.0963 v 2.41459 z m 1.82986,-2.20133 q 0.28893,0 0.51594,-0.14447 0.22701,-0.14446 0.35084,-0.39899 0.1307,-0.25453 0.1307,-0.58473 0,-0.3302 -0.12382,-0.57785 -0.12383,-0.25453 -0.35084,-0.39899 -0.22701,-0.14446 -0.52282,-0.14446 -0.30268,0 -0.52969,0.14446 -0.22014,0.13758 -0.35084,0.39211 -0.1307,0.25453 -0.1307,0.58473 0,0.3302 0.1307,0.58473 0.1307,0.25453 0.35084,0.39899 0.22701,0.14447 0.52969,0.14447 z m 2.58658,0.68791 v -5.09058 h 0.85301 v 5.09058 z m 3.43958,0.0688 q -0.54345,0 -0.96996,-0.24077 -0.42651,-0.24765 -0.67416,-0.67415 -0.24765,-0.42651 -0.24765,-0.96997 0,-0.54345 0.24765,-0.96996 0.24765,-0.42651 0.67416,-0.66728 0.42651,-0.24765 0.96996,-0.24765 0.53658,0 0.96309,0.24765 0.42651,0.24077 0.66728,0.66728 0.24765,0.42651 0.24765,0.96996 0,0.54346 -0.24765,0.96997 -0.24077,0.4265 -0.66728,0.67415 -0.42651,0.24077 -0.96309,0.24077 z m 0,-0.74982 q 0.29581,0 0.52282,-0.15135 0.23389,-0.15134 0.3646,-0.40587 0.13758,-0.25453 0.1307,-0.57785 0.007,-0.3302 -0.1307,-0.58473 -0.13071,-0.25453 -0.3646,-0.39899 -0.22701,-0.15134 -0.52282,-0.15134 -0.2958,0 -0.53657,0.15134 -0.23389,0.14446 -0.3646,0.40587 -0.1307,0.25453 -0.1307,0.57785 0,0.32332 0.1307,0.57785 0.13071,0.25453 0.3646,0.40587 0.24077,0.15135 0.53657,0.15135 z m 2.63473,0.68103 v -3.62532 h 0.83238 l 0.0138,1.1557 -0.11695,-0.26141 q 0.0757,-0.27516 0.26141,-0.4953 0.18574,-0.22013 0.42651,-0.34396 0.24765,-0.1307 0.51594,-0.1307 0.11694,0 0.22013,0.0206 0.11007,0.0206 0.17886,0.0482 l -0.22701,0.92869 q -0.0757,-0.0413 -0.18574,-0.0688 -0.11007,-0.0275 -0.22014,-0.0275 -0.17197,0 -0.3302,0.0688 -0.15134,0.0619 -0.26828,0.17886 -0.11695,0.11695 -0.18574,0.27517 -0.0619,0.15134 -0.0619,0.34396 v 1.93304 z m 4.44394,0.0688 q -0.57097,0 -1.01123,-0.24077 -0.43339,-0.24077 -0.68104,-0.65352 -0.24077,-0.41963 -0.24077,-0.9562 0,-0.42651 0.13758,-0.77735 0.13758,-0.35084 0.37835,-0.60537 0.24765,-0.2614 0.58473,-0.39899 0.34396,-0.14446 0.74983,-0.14446 0.35772,0 0.66728,0.13758 0.30957,0.13759 0.53658,0.37836 0.22701,0.23389 0.34396,0.56409 0.12382,0.32332 0.11694,0.70855 l -0.007,0.29581 h -2.9374 l -0.15822,-0.57785 h 2.38707 l -0.11007,0.11694 v -0.15134 q -0.0206,-0.21325 -0.13758,-0.37147 -0.11695,-0.1651 -0.30268,-0.25453 -0.17886,-0.0963 -0.399,-0.0963 -0.33708,0 -0.57097,0.1307 -0.22701,0.13071 -0.34396,0.37836 -0.11694,0.24077 -0.11694,0.60537 0,0.35083 0.14446,0.61224 0.15134,0.26141 0.41963,0.40587 0.27517,0.13759 0.63976,0.13759 0.25453,0 0.46779,-0.0825 0.21325,-0.0825 0.4609,-0.29581 l 0.41963,0.58473 q -0.18574,0.17198 -0.42651,0.29581 -0.23389,0.11694 -0.4953,0.18573 -0.26141,0.0688 -0.51594,0.0688 z m 4.35453,-0.0688 v -3.62532 h 0.8255 l 0.0138,0.74295 -0.15823,0.0825 q 0.0688,-0.24765 0.26829,-0.44715 0.1995,-0.20637 0.47467,-0.3302 0.27516,-0.12382 0.56409,-0.12382 0.41275,0 0.68791,0.1651 0.28205,0.1651 0.41963,0.4953 0.14447,0.3302 0.14447,0.8255 v 2.21509 h -0.84614 v -2.15318 q 0,-0.27516 -0.0757,-0.45402 -0.0757,-0.18574 -0.23389,-0.26829 -0.15823,-0.0894 -0.38524,-0.0825 -0.18574,0 -0.34396,0.0619 -0.15134,0.055 -0.26828,0.1651 -0.11007,0.10319 -0.17886,0.24077 -0.0619,0.13759 -0.0619,0.30269 v 2.18757 h -0.41962 q -0.12383,0 -0.2339,0 -0.10318,0 -0.19261,0 z m 5.55836,0.0688 q -0.44714,0 -0.81174,-0.24765 -0.3646,-0.24765 -0.58473,-0.67415 -0.22013,-0.42651 -0.22013,-0.96997 0,-0.54345 0.22013,-0.96996 0.22013,-0.42651 0.59849,-0.66728 0.37835,-0.24077 0.85301,-0.24077 0.27517,0 0.50218,0.0826 0.22702,0.0757 0.399,0.22013 0.17197,0.14447 0.28204,0.3302 0.11695,0.18574 0.15822,0.399 l -0.18574,-0.0482 v -0.90805 h 0.85302 v 3.62532 h -0.85989 v -0.86677 l 0.19949,-0.0344 q -0.0481,0.18574 -0.17886,0.3646 -0.12382,0.17198 -0.31644,0.30956 -0.18574,0.1307 -0.41963,0.21325 -0.22701,0.0826 -0.48842,0.0826 z m 0.23389,-0.74982 q 0.29581,0 0.52282,-0.14447 0.22701,-0.14446 0.35084,-0.39899 0.1307,-0.26141 0.1307,-0.59849 0,-0.3302 -0.1307,-0.58473 -0.12383,-0.25453 -0.35084,-0.39899 -0.22701,-0.14446 -0.52282,-0.14446 -0.2958,0 -0.52281,0.14446 -0.22014,0.14446 -0.34396,0.39899 -0.12383,0.25453 -0.12383,0.58473 0,0.33708 0.12383,0.59849 0.12382,0.25453 0.34396,0.39899 0.22701,0.14447 0.52281,0.14447 z m 3.2057,0.68103 v -4.54713 h 0.84613 v 4.54713 z m -0.71544,-2.84109 v -0.78423 h 2.35268 v 0.78423 z m 4.25821,2.90988 q -0.39211,0 -0.68104,-0.17197 -0.28892,-0.17886 -0.44026,-0.50218 -0.15135,-0.3302 -0.15135,-0.78423 v -2.23573 h 0.84614 v 2.05687 q 0,0.28893 0.0894,0.4953 0.0894,0.1995 0.26141,0.30957 0.17198,0.11006 0.41275,0.11006 0.17886,0 0.32332,-0.055 0.15134,-0.0619 0.26141,-0.1651 0.11007,-0.11007 0.17198,-0.25453 0.0619,-0.15134 0.0619,-0.32332 v -2.17382 h 0.84614 v 3.62532 h -0.8255 l -0.0138,-0.75671 0.15134,-0.0825 q -0.0825,0.26141 -0.28204,0.46779 -0.19262,0.19949 -0.46091,0.32332 -0.26829,0.11694 -0.57097,0.11694 z m 2.99244,-0.0688 v -3.62532 h 0.83238 l 0.0138,1.1557 -0.11694,-0.26141 q 0.0757,-0.27516 0.26141,-0.4953 0.18573,-0.22013 0.42651,-0.34396 0.24765,-0.1307 0.51593,-0.1307 0.11695,0 0.22014,0.0206 0.11006,0.0206 0.17885,0.0482 l -0.22701,0.92869 q -0.0757,-0.0413 -0.18574,-0.0688 -0.11006,-0.0275 -0.22013,-0.0275 -0.17198,0 -0.3302,0.0688 -0.15134,0.0619 -0.26829,0.17886 -0.11694,0.11695 -0.18573,0.27517 -0.0619,0.15134 -0.0619,0.34396 v 1.93304 z m 4.11374,0.0688 q -0.44714,0 -0.81174,-0.24765 -0.36459,-0.24765 -0.58473,-0.67415 -0.22013,-0.42651 -0.22013,-0.96997 0,-0.54345 0.22013,-0.96996 0.22014,-0.42651 0.59849,-0.66728 0.37835,-0.24077 0.85302,-0.24077 0.27516,0 0.50218,0.0826 0.22701,0.0757 0.39899,0.22013 0.17198,0.14447 0.28204,0.3302 0.11695,0.18574 0.15823,0.399 l -0.18574,-0.0482 v -0.90805 h 0.85301 v 3.62532 h -0.85989 v -0.86677 l 0.19949,-0.0344 q -0.0482,0.18574 -0.17885,0.3646 -0.12383,0.17198 -0.31645,0.30956 -0.18573,0.1307 -0.41962,0.21325 -0.22702,0.0826 -0.48843,0.0826 z m 0.2339,-0.74982 q 0.2958,0 0.52281,-0.14447 0.22702,-0.14446 0.35084,-0.39899 0.1307,-0.26141 0.1307,-0.59849 0,-0.3302 -0.1307,-0.58473 -0.12382,-0.25453 -0.35084,-0.39899 -0.22701,-0.14446 -0.52281,-0.14446 -0.29581,0 -0.52282,0.14446 -0.22013,0.14446 -0.34396,0.39899 -0.12382,0.25453 -0.12382,0.58473 0,0.33708 0.12382,0.59849 0.12383,0.25453 0.34396,0.39899 0.22701,0.14447 0.52282,0.14447 z m 2.82046,0.68103 v -5.09058 h 0.85301 v 5.09058 z m 3.87986,0 v -5.09058 h 0.85301 v 5.09058 z m 1.94681,0 v -3.62532 h 0.84613 v 3.62532 z m 0.41275,-4.39579 q -0.25453,0 -0.399,-0.12382 -0.13758,-0.13071 -0.13758,-0.3646 0,-0.22013 0.14446,-0.35771 0.14447,-0.13759 0.39212,-0.13759 0.2614,0 0.39899,0.13071 0.14446,0.12382 0.14446,0.36459 0,0.21326 -0.14446,0.35084 -0.14447,0.13758 -0.39899,0.13758 z m 3.13689,5.978 q -0.40587,0 -0.81174,-0.12382 -0.39899,-0.12383 -0.64664,-0.32332 l 0.30268,-0.62601 q 0.14446,0.10319 0.32332,0.17886 0.17886,0.0757 0.37836,0.11695 0.20637,0.0413 0.40587,0.0413 0.36459,0 0.60536,-0.11694 0.24765,-0.11007 0.37148,-0.34396 0.12382,-0.22702 0.12382,-0.57097 v -0.66728 l 0.12383,0.0481 q -0.0413,0.21325 -0.22701,0.40587 -0.18574,0.19262 -0.46779,0.31644 -0.28204,0.11695 -0.57785,0.11695 -0.51594,0 -0.91493,-0.24077 -0.39211,-0.24077 -0.626,-0.65352 -0.22701,-0.41963 -0.22701,-0.96309 0,-0.54345 0.22701,-0.96308 0.22701,-0.42651 0.61912,-0.66728 0.399,-0.24765 0.8943,-0.24765 0.20637,0 0.39899,0.0482 0.19261,0.0482 0.35084,0.13759 0.1651,0.0894 0.2958,0.19949 0.1307,0.11007 0.21325,0.23389 0.0825,0.12383 0.10319,0.24078 l -0.17886,0.055 0.0138,-0.83926 h 0.83238 v 3.37767 q 0,0.44027 -0.1307,0.77735 -0.13071,0.33708 -0.37836,0.57097 -0.24765,0.24077 -0.59849,0.35772 -0.35083,0.12382 -0.79798,0.12382 z m 0.0344,-2.27012 q 0.30956,0 0.54345,-0.14447 0.24077,-0.14446 0.37148,-0.39899 0.1307,-0.25453 0.1307,-0.58473 0,-0.33708 -0.13758,-0.59161 -0.13071,-0.2614 -0.3646,-0.40587 -0.23389,-0.14446 -0.54345,-0.14446 -0.30957,0 -0.54346,0.15134 -0.23389,0.14446 -0.37147,0.40587 -0.13071,0.25453 -0.13071,0.58473 0,0.32332 0.13071,0.58473 0.13758,0.25453 0.37147,0.39899 0.23389,0.14447 0.54346,0.14447 z m 2.84797,0.68791 v -5.0906 H 213.79 v 2.20821 l -0.15822,0.0825 q 0.0688,-0.24765 0.26829,-0.44715 0.1995,-0.20637 0.47466,-0.3302 0.27517,-0.12382 0.56409,-0.12382 0.41275,0 0.68792,0.1651 0.28205,0.1651 0.41963,0.4953 0.14446,0.3302 0.14446,0.8255 v 2.21509 h -0.84613 v -2.15318 q 0,-0.27516 -0.0757,-0.45402 -0.0757,-0.18574 -0.23389,-0.26829 -0.15822,-0.0894 -0.38523,-0.0825 -0.18574,0 -0.34396,0.0619 -0.15134,0.055 -0.26829,0.1651 -0.11006,0.10319 -0.17885,0.24077 -0.0619,0.13759 -0.0619,0.30269 v 2.18757 h -0.41963 q -0.12382,0 -0.23389,0 -0.10319,0 -0.19262,0 z m 4.58152,0 v -4.54713 h 0.84614 v 4.54713 z m -0.71543,-2.84109 v -0.78423 h 2.35268 v 0.78423 z"
                 id="text2"
                 style="font-weight:500;font-size:6.87917px;font-family:Lexend;-inkscape-font-specification:'Lexend, Medium';fill:#00cc00;fill-opacity:1;stroke-width:0.511881;stroke-dasharray:none"
                 aria-label="Explore natural light" />
              <path
                 id="rect2"
                 style="opacity:0;fill:#4d4d4d;stroke-width:0.511881;stroke-dasharray:none"
                 d="M 58.653175,93.869202 H 231.9885 V 137.39972 H 58.653175 Z" />
            </g>
          </g>
        </g>
      </g>
    </g>
  </g>
</svg>
